<!--
  WOPR application icon: front-panel lamps, full bleed. Provenance: original (drawn for wopr).
  The lamps of wopr.svg on an opaque square with no margin and square corners, for macOS
  (wopr.icns), which rounds icons itself, and the docs site's apple-touch-icon.png. To change
  the icon, edit the sources (packaging/icons/README.md), then run: go run ./internal/tools/icons
-->
<svg xmlns="http://www.w3.org/2000/svg" viewBox="0 0 1024 1024" width="1024" height="1024">
  <title>WOPR</title>
  <defs>
    <linearGradient id="frame" x1="0" y1="0" x2="0" y2="1">
      <stop offset="0" stop-color="#6b717b"/>
      <stop offset="0.5" stop-color="#474c54"/>
      <stop offset="1" stop-color="#2e3137"/>
    </linearGradient>
    <linearGradient id="panel" x1="0" y1="0" x2="0" y2="1">
      <stop offset="0" stop-color="#0b0d10"/>
      <stop offset="1" stop-color="#1c1f24"/>
    </linearGradient>
    <linearGradient id="bezel" x1="0" y1="0" x2="0" y2="1">
      <stop offset="0" stop-color="#4f545c"/>
      <stop offset="1" stop-color="#1a1c20"/>
    </linearGradient>
    <radialGradient id="off" cx="0.42" cy="0.38" r="0.62">
      <stop offset="0" stop-color="#4d473f"/>
      <stop offset="0.6" stop-color="#2c2925"/>
      <stop offset="1" stop-color="#1b1a18"/>
    </radialGradient>
    <radialGradient id="amber" cx="0.45" cy="0.42" r="0.6">
      <stop offset="0" stop-color="#fffbe8"/>
      <stop offset="0.28" stop-color="#ffdd7a"/>
      <stop offset="0.66" stop-color="#ffaa14"/>
      <stop offset="1" stop-color="#dc6f00"/>
    </radialGradient>
    <radialGradient id="red" cx="0.45" cy="0.42" r="0.6">
      <stop offset="0" stop-color="#ffece6"/>
      <stop offset="0.28" stop-color="#ff8a6c"/>
      <stop offset="0.66" stop-color="#f43c24"/>
      <stop offset="1" stop-color="#b0160b"/>
    </radialGradient>
    <radialGradient id="dim" cx="0.45" cy="0.42" r="0.6">
      <stop offset="0" stop-color="#f0a83c"/>
      <stop offset="0.45" stop-color="#b8650c"/>
      <stop offset="1" stop-color="#4a2606"/>
    </radialGradient>
    <radialGradient id="amberGlow" cx="0.5" cy="0.5" r="0.5">
      <stop offset="0" stop-color="#ffb020" stop-opacity="0.75"/>
      <stop offset="0.5" stop-color="#ffa000" stop-opacity="0.3"/>
      <stop offset="1" stop-color="#ff9000" stop-opacity="0"/>
    </radialGradient>
    <radialGradient id="redGlow" cx="0.5" cy="0.5" r="0.5">
      <stop offset="0" stop-color="#ff5030" stop-opacity="0.75"/>
      <stop offset="0.5" stop-color="#ff3a20" stop-opacity="0.3"/>
      <stop offset="1" stop-color="#ff3010" stop-opacity="0"/>
    </radialGradient>
  </defs>
  <!-- cabinet: frame to every edge, recessed panel -->
  <rect x="0" y="0" width="1024" height="1024" fill="url(#frame)"/>
  <rect x="60" y="60" width="904" height="904" rx="174" ry="174" fill="#07080a"/>
  <rect x="68" y="68" width="888" height="888" rx="166" ry="166" fill="url(#panel)"/>
  <!-- glows, under the lamp sockets -->
  <circle cx="788" cy="236" r="146" fill="url(#amberGlow)"/>
  <circle cx="236" cy="420" r="146" fill="url(#redGlow)"/>
  <circle cx="604" cy="420" r="146" fill="url(#amberGlow)"/>
  <circle cx="420" cy="604" r="146" fill="url(#amberGlow)"/>
  <circle cx="788" cy="604" r="116.8" fill="url(#amberGlow)" fill-opacity="0.45"/>
  <circle cx="236" cy="788" r="146" fill="url(#amberGlow)"/>
  <!-- lamps: socket, lens, highlight -->
  <circle cx="236" cy="236" r="75" fill="url(#bezel)"/>
  <circle cx="236" cy="236" r="61" fill="url(#off)"/>
  <ellipse cx="217.7" cy="212.82" rx="18.3" ry="10.98" fill="#ffffff" fill-opacity="0.1"/>
  <circle cx="420" cy="236" r="75" fill="url(#bezel)"/>
  <circle cx="420" cy="236" r="61" fill="url(#off)"/>
  <ellipse cx="401.7" cy="212.82" rx="18.3" ry="10.98" fill="#ffffff" fill-opacity="0.1"/>
  <circle cx="604" cy="236" r="75" fill="url(#bezel)"/>
  <circle cx="604" cy="236" r="61" fill="url(#off)"/>
  <ellipse cx="585.7" cy="212.82" rx="18.3" ry="10.98" fill="#ffffff" fill-opacity="0.1"/>
  <circle cx="788" cy="236" r="75" fill="url(#bezel)"/>
  <circle cx="788" cy="236" r="75" fill="#ffb020" fill-opacity="0.22"/>
  <circle cx="788" cy="236" r="61" fill="url(#amber)"/>
  <ellipse cx="769.7" cy="212.82" rx="18.3" ry="10.98" fill="#ffffff" fill-opacity="0.45"/>
  <circle cx="236" cy="420" r="75" fill="url(#bezel)"/>
  <circle cx="236" cy="420" r="75" fill="#ff4a2a" fill-opacity="0.22"/>
  <circle cx="236" cy="420" r="61" fill="url(#red)"/>
  <ellipse cx="217.7" cy="396.82" rx="18.3" ry="10.98" fill="#ffffff" fill-opacity="0.45"/>
  <circle cx="420" cy="420" r="75" fill="url(#bezel)"/>
  <circle cx="420" cy="420" r="61" fill="url(#off)"/>
  <ellipse cx="401.7" cy="396.82" rx="18.3" ry="10.98" fill="#ffffff" fill-opacity="0.1"/>
  <circle cx="604" cy="420" r="75" fill="url(#bezel)"/>
  <circle cx="604" cy="420" r="75" fill="#ffb020" fill-opacity="0.22"/>
  <circle cx="604" cy="420" r="61" fill="url(#amber)"/>
  <ellipse cx="585.7" cy="396.82" rx="18.3" ry="10.98" fill="#ffffff" fill-opacity="0.45"/>
  <circle cx="788" cy="420" r="75" fill="url(#bezel)"/>
  <circle cx="788" cy="420" r="61" fill="url(#off)"/>
  <ellipse cx="769.7" cy="396.82" rx="18.3" ry="10.98" fill="#ffffff" fill-opacity="0.1"/>
  <circle cx="236" cy="604" r="75" fill="url(#bezel)"/>
  <circle cx="236" cy="604" r="61" fill="url(#off)"/>
  <ellipse cx="217.7" cy="580.82" rx="18.3" ry="10.98" fill="#ffffff" fill-opacity="0.1"/>
  <circle cx="420" cy="604" r="75" fill="url(#bezel)"/>
  <circle cx="420" cy="604" r="75" fill="#ffb020" fill-opacity="0.22"/>
  <circle cx="420" cy="604" r="61" fill="url(#amber)"/>
  <ellipse cx="401.7" cy="580.82" rx="18.3" ry="10.98" fill="#ffffff" fill-opacity="0.45"/>
  <circle cx="604" cy="604" r="75" fill="url(#bezel)"/>
  <circle cx="604" cy="604" r="61" fill="url(#off)"/>
  <ellipse cx="585.7" cy="580.82" rx="18.3" ry="10.98" fill="#ffffff" fill-opacity="0.1"/>
  <circle cx="788" cy="604" r="75" fill="url(#bezel)"/>
  <circle cx="788" cy="604" r="75" fill="#ffb020" fill-opacity="0.1"/>
  <circle cx="788" cy="604" r="61" fill="url(#dim)"/>
  <ellipse cx="769.7" cy="580.82" rx="18.3" ry="10.98" fill="#ffffff" fill-opacity="0.25"/>
  <circle cx="236" cy="788" r="75" fill="url(#bezel)"/>
  <circle cx="236" cy="788" r="75" fill="#ffb020" fill-opacity="0.22"/>
  <circle cx="236" cy="788" r="61" fill="url(#amber)"/>
  <ellipse cx="217.7" cy="764.82" rx="18.3" ry="10.98" fill="#ffffff" fill-opacity="0.45"/>
  <circle cx="420" cy="788" r="75" fill="url(#bezel)"/>
  <circle cx="420" cy="788" r="61" fill="url(#off)"/>
  <ellipse cx="401.7" cy="764.82" rx="18.3" ry="10.98" fill="#ffffff" fill-opacity="0.1"/>
  <circle cx="604" cy="788" r="75" fill="url(#bezel)"/>
  <circle cx="604" cy="788" r="61" fill="url(#off)"/>
  <ellipse cx="585.7" cy="764.82" rx="18.3" ry="10.98" fill="#ffffff" fill-opacity="0.1"/>
  <circle cx="788" cy="788" r="75" fill="url(#bezel)"/>
  <circle cx="788" cy="788" r="61" fill="url(#off)"/>
  <ellipse cx="769.7" cy="764.82" rx="18.3" ry="10.98" fill="#ffffff" fill-opacity="0.1"/>
</svg>
